<svg width="121" height="27" viewBox="0 0 121 27" fill="none" xmlns="http://www.w3.org/2000/svg">
<path d="M17.4069 20.8V8.518C17.4069 7.91 17.466 5.274 17.466 3.333H17.4069L11.555 20.799H8.77395L2.92295 3.362H2.86495C2.86495 5.274 2.92295 7.91 2.92295 8.518V20.8H0.199951V0H4.22595L10.165 17.584H10.223L16.133 0H20.133V20.8H17.4069Z" fill="#2B3137"/>
<path d="M35.5349 5.64999H38.3489C36.5819 10.603 34.8439 15.558 32.9029 20.511C30.4979 26.654 30.2379 27.001 26.9639 27.001C26.5973 26.9759 26.2362 26.8978 25.8919 26.769V24.452C26.3849 24.6275 26.9047 24.7155 27.4279 24.712C28.761 24.712 28.9049 24.335 30.1219 21.206L24.4969 5.64999H27.3969L31.4239 17.991H31.482L35.5349 5.64999Z" fill="#2B3137"/>
<path d="M58.627 20.8H55.672L50.255 0H53.297L57.179 16.918H57.237L61.901 0H64.971L69.636 16.918H69.694L73.576 0H76.676L71.2 20.8H68.245L63.494 3.563H63.436L58.627 20.8Z" fill="#2B3137"/>
<path d="M85.9229 5.215C90.7609 5.215 92.9629 9.299 92.9629 13.21C92.9629 17.121 90.7629 21.21 85.9229 21.21C81.0829 21.21 78.8829 17.126 78.8829 13.21C78.8829 9.294 81.0849 5.215 85.9229 5.215ZM85.9229 19.005C89.5729 19.005 90.3229 15.239 90.3229 13.205C90.3229 11.171 89.5699 7.412 85.9229 7.412C82.2759 7.412 81.5229 11.178 81.5229 13.205C81.5229 15.232 82.2729 19.005 85.9229 19.005Z" fill="#2B3137"/>
<path d="M99.66 20.8H97.111V5.64999H99.511V8.17099H99.569C100.583 6.40199 101.915 5.21499 103.828 5.21499C104.053 5.20656 104.279 5.23631 104.494 5.30299V7.94199H103.538C103.012 7.93714 102.49 8.04012 102.006 8.24457C101.521 8.44902 101.083 8.75061 100.719 9.13074C100.356 9.51087 100.074 9.96147 99.8907 10.4548C99.7078 10.9481 99.6279 11.4736 99.656 11.999L99.66 20.8Z" fill="#2B3137"/>
<path d="M120.2 20.8H116.927L112.204 13.154L110.09 15.066V20.8H107.627V0H110.09V12.052L116.609 5.652H119.853L114.059 11.302L120.2 20.8Z" fill="#2B3137"/>
</svg>
